HIERARCHY
ROOT Hips
{
	OFFSET 0.00000 0.00000 0.00000
	CHANNELS 6 Xposition Yposition Zposition Zrotation Yrotation Xrotation 
	JOINT LHipJoint
	{
		OFFSET 0 0 0
		CHANNELS 3 Zrotation Yrotation Xrotation
		JOINT LeftUpLeg
		{
			OFFSET 1.75344 -1.53157 0.77399
			CHANNELS 3 Zrotation Yrotation Xrotation
			JOINT LeftLeg
			{
				OFFSET 2.25415 -6.19323 0.00000
				CHANNELS 3 Zrotation Yrotation Xrotation
				JOINT LeftFoot
				{
					OFFSET 2.30342 -6.32861 0.00000
					CHANNELS 3 Zrotation Yrotation Xrotation
					JOINT LeftToeBase
					{
						OFFSET 0.10958 -0.30108 1.49206
						CHANNELS 3 Zrotation Yrotation Xrotation
						End Site
						{
							OFFSET 0.00000 -0.00000 0.77783
						}
					}
				}
			}
		}
	}
	JOINT RHipJoint
	{
		OFFSET 0 0 0
		CHANNELS 3 Zrotation Yrotation Xrotation
		JOINT RightUpLeg
		{
			OFFSET -1.81912 -1.53156 0.77399
			CHANNELS 3 Zrotation Yrotation Xrotation
			JOINT RightLeg
			{
				OFFSET -2.22882 -6.12365 0.00000
				CHANNELS 3 Zrotation Yrotation Xrotation
				JOINT RightFoot
				{
					OFFSET -2.21943 -6.09785 0.00000
					CHANNELS 3 Zrotation Yrotation Xrotation
					JOINT RightToeBase
					{
						OFFSET -0.18931 -0.52012 1.59379
						CHANNELS 3 Zrotation Yrotation Xrotation
						End Site
						{
							OFFSET -0.00000 -0.00000 0.84686
						}
					}
				}
			}
		}
	}
	JOINT LowerBack
	{
		OFFSET 0 0 0
		CHANNELS 3 Zrotation Yrotation Xrotation
		JOINT Spine
		{
			OFFSET -0.00200 1.66634 -0.14248
			CHANNELS 3 Zrotation Yrotation Xrotation
			JOINT Spine1
			{
				OFFSET -0.00875 1.64542 0.09514
				CHANNELS 3 Zrotation Yrotation Xrotation
				JOINT Neck
				{
					OFFSET 0 0 0
					CHANNELS 3 Zrotation Yrotation Xrotation
					JOINT Neck1
					{
						OFFSET 0.02257 1.59605 0.00839
						CHANNELS 3 Zrotation Yrotation Xrotation
						JOINT Head
						{
							OFFSET -0.10214 1.57530 -0.23335
							CHANNELS 3 Zrotation Yrotation Xrotation
							End Site
							{
								OFFSET -0.03588 1.60717 -0.08062
							}
						}
					}
				}
				JOINT LeftShoulder
				{
					OFFSET 0 0 0
					CHANNELS 3 Zrotation Yrotation Xrotation
					JOINT LeftArm
					{
						OFFSET 2.54983 1.10186 0.40078
						CHANNELS 3 Zrotation Yrotation Xrotation
						JOINT LeftForeArm
						{
							OFFSET 4.28840 -0.00000 0.00000
							CHANNELS 3 Zrotation Yrotation Xrotation
							JOINT LeftHand
							{
								OFFSET 3.06552 -0.00000 -0.00000
								CHANNELS 3 Zrotation Yrotation Xrotation
								JOINT LeftFingerBase
								{
									OFFSET 0 0 0
									CHANNELS 3 Zrotation Yrotation Xrotation
									JOINT LeftHandIndex1
									{
										OFFSET 0.75304 -0.00000 0.00000
										CHANNELS 3 Zrotation Yrotation Xrotation
										End Site
										{
											OFFSET 0.60712 -0.00000 0.00000
										}
									}
								}
								JOINT LThumb
								{
									OFFSET 0 0 0
									CHANNELS 3 Zrotation Yrotation Xrotation
									End Site
									{
										OFFSET 0.61639 -0.00000 0.61639
									}
								}
							}
						}
					}
				}
				JOINT RightShoulder
				{
					OFFSET 0 0 0
					CHANNELS 3 Zrotation Yrotation Xrotation
					JOINT RightArm
					{
						OFFSET -2.60909 1.35448 0.21802
						CHANNELS 3 Zrotation Yrotation Xrotation
						JOINT RightForeArm
						{
							OFFSET -4.52172 -0.00000 -0.00000
							CHANNELS 3 Zrotation Yrotation Xrotation
							JOINT RightHand
							{
								OFFSET -2.89140 -0.00000 0.00000
								CHANNELS 3 Zrotation Yrotation Xrotation
								JOINT RightFingerBase
								{
									OFFSET 0 0 0
									CHANNELS 3 Zrotation Yrotation Xrotation
									JOINT RightHandIndex1
									{
										OFFSET -0.68054 -0.00000 0.00000
										CHANNELS 3 Zrotation Yrotation Xrotation
										End Site
										{
											OFFSET -0.54867 -0.00000 0.00000
										}
									}
								}
								JOINT RThumb
								{
									OFFSET 0 0 0
									CHANNELS 3 Zrotation Yrotation Xrotation
									End Site
									{
										OFFSET -0.55705 -0.00000 0.55705
									}
								}
							}
						}
					}
				}
			}
		}
	}
}
MOTION
Frames: 16
Frame Time: .0083333
8.051 15.1 41.5564 0 0 0 0 0 0 -21 0 0 0 0 0 0 0 0 0 0 0 0 0 0 21 0 0 0 0 0 0 0 0 0 0 0 0 0 0 0 0 0 0 0 0 0 0 -16 0 0 21 0 0 11 0 0 0 -8 0 0 0 0 0 0 0 0 0 0 0 0 0 0 0 0 0 0 0 0 8 0 0 0 0 0 0 0 0 0 0 0 0 0 0 0 0 0
8.0510 15.1000 41.5564 -178.7240 -17.9538 178.9220 0.0000 0.0000 0.0000 -23.7695 -28.4537 -4.0162 3.1309 10.9040 31.9566 1.3180 -10.7265 -20.7591 2.3020 -9.4687 -27.2729 0.0000 0.0000 0.0000 29.0493 9.3553 -1.5679 -2.0786 -9.0280 25.8830 -2.8215 -24.8979 -47.5996 -3.3346 -11.2179 33.0184 3.2796 3.4128 9.5734 -0.7294 4.9305 -4.2799 -3.4773 2.1325 -9.6105 4.4117 10.9845 -7.5961 -3.4950 14.6665 15.3584 -0.6114 6.9640 6.5066 -0.0000 0.0000 0.0000 -81.7818 14.2528 -1.3045 21.9121 -32.8776 -6.5381 -0.0000 -0.0000 14.7245 8.0013 -25.1263 -3.4157 -7.1250 0.0000 -0.0000 -13.1168 5.1890 12.2082 -0.0000 0.0000 0.0000 81.1813 -18.2503 47.8315 -19.3849 29.8942 -5.2213 0.0000 0.0000 13.3796 -21.4798 -52.3950 17.3148 7.1250 -0.0000 -0.0000 60.4991 -79.3257 -50.6673
8.0559 15.1015 41.5385 -178.7420 -17.8218 178.9740 0.0000 0.0000 0.0000 -23.8664 -28.7484 -3.7995 3.1219 10.8898 31.9092 1.3196 -10.5766 -20.7511 2.0571 -8.9841 -25.7456 0.0000 0.0000 0.0000 29.0502 9.4300 -1.4992 -2.0661 -9.0024 25.8029 -2.8021 -24.8680 -47.5021 -3.3818 -11.2889 33.2604 3.1125 3.4419 9.1401 -0.7323 4.9275 -4.3527 -3.3562 2.1450 -9.4482 4.7613 11.1003 -7.1065 -3.6650 14.8086 15.3704 -0.7279 7.0418 6.4734 -0.0000 -0.0000 0.0000 -80.8055 14.5059 -0.0924 22.3104 -33.3261 -6.7556 -0.0000 -0.0000 14.7882 8.0914 -25.2633 -3.4721 -7.1250 0.0000 -0.0000 -13.0652 5.0460 12.1937 -0.0000 -0.0000 0.0000 81.1502 -18.6062 47.6533 -19.4051 29.9189 -5.2314 0.0000 0.0000 13.0098 -21.5960 -51.8352 17.2876 7.1250 -0.0000 -0.0000 57.6236 -79.1834 -47.9202
8.0578 15.1041 41.5199 -178.8590 -17.6434 179.1510 0.0000 0.0000 0.0000 -24.0224 -29.0213 -3.6550 3.0973 10.8509 31.7787 1.3451 -10.0874 -20.8846 2.0600 -8.9900 -25.7642 0.0000 0.0000 0.0000 28.9322 9.6036 -1.5372 -2.0657 -9.0015 25.8001 -2.7240 -25.1259 -47.4402 -3.3552 -11.2490 33.1243 2.8456 3.4720 8.5765 -0.7270 4.9097 -4.4303 -3.1587 2.1579 -9.2243 4.8452 11.2739 -6.5787 -3.6380 15.0337 15.2426 -0.7463 7.1662 6.3572 -0.0000 0.0000 0.0000 -80.0910 14.8455 0.9164 22.7178 -33.7788 -6.9808 -0.0000 -0.0000 15.0961 8.9332 -25.7506 -3.9068 -7.1250 0.0000 -0.0000 -12.5712 4.4801 11.8452 -0.0000 0.0000 0.0000 81.1447 -18.7769 47.5355 -19.3235 29.8187 -5.1907 0.0000 0.0000 12.7984 -22.0888 -52.2920 17.8002 7.1250 -0.0000 -0.0000 59.7627 -79.5474 -50.2123
8.0608 15.1091 41.5022 -178.9790 -17.4401 179.3600 0.0000 0.0000 0.0000 -24.1228 -29.1450 -3.6110 3.0759 10.8168 31.6646 1.3809 -9.7040 -21.1148 2.1763 -9.2240 -26.4986 0.0000 0.0000 0.0000 28.8184 9.8185 -1.5752 -2.0612 -8.9924 25.7717 -2.7139 -25.2253 -47.4908 -3.3659 -11.2651 33.1792 2.5781 3.5104 8.1209 -0.7263 4.9077 -4.5695 -2.9803 2.1720 -9.1300 4.8567 11.4588 -6.1071 -3.4238 15.2552 15.1695 -0.6948 7.2974 6.2475 -0.0000 -0.0000 0.0000 -79.4087 15.4058 2.2411 23.3852 -34.5073 -7.3553 -0.0000 -0.0000 14.7505 9.3900 -25.5283 -4.0764 -7.1250 0.0000 -0.0000 -12.2902 4.6480 11.5277 -0.0000 -0.0000 0.0000 81.1800 -19.0647 47.3348 -19.2837 29.7697 -5.1710 0.0000 0.0000 12.7074 -22.7223 -52.9365 18.4777 7.1250 -0.0000 -0.0000 63.0849 -80.0009 -53.7131
8.0746 15.1140 41.4871 -179.0210 -17.1032 179.4230 0.0000 0.0000 0.0000 -24.0995 -28.9955 -3.5463 3.0603 10.7920 31.5817 1.4225 -9.3437 -21.3960 2.3334 -9.5284 -27.4627 0.0000 0.0000 0.0000 28.8708 10.0292 -1.4963 -2.0599 -8.9898 25.7633 -2.6507 -25.1990 -47.2341 -3.3057 -11.1742 32.8697 2.1258 3.5785 7.7197 -0.6008 4.9416 -4.5605 -2.5701 2.2258 -8.9305 4.6951 11.7375 -6.3706 -2.8846 15.5717 15.7605 -0.4473 7.4604 6.4370 -0.0000 0.0000 0.0000 -78.7337 15.7354 3.8785 24.6544 -35.8487 -8.0866 -0.0000 -0.0000 12.3543 6.4355 -22.7218 -2.4947 -7.1250 0.0000 -0.0000 -14.0525 7.6785 12.4389 -0.0000 0.0000 0.0000 81.1431 -19.1494 46.9988 -19.2471 29.7246 -5.1528 0.0000 0.0000 12.8278 -22.5195 -53.3478 18.3988 7.1250 -0.0000 -0.0000 65.4134 -80.0147 -55.8931
8.1003 15.1204 41.4734 -178.9850 -16.5256 179.6210 0.0000 0.0000 0.0000 -23.7989 -28.7093 -3.7643 3.0499 10.7753 31.5259 1.4526 -8.9741 -21.5966 2.5480 -9.9247 -28.7333 0.0000 0.0000 0.0000 29.0263 10.4554 -1.5429 -2.0594 -8.9886 25.7598 -2.6012 -25.2267 -47.0751 -3.1847 -10.9881 32.2399 1.4883 3.6908 7.2292 -0.4070 5.0152 -4.7301 -1.9936 2.3027 -8.8952 4.4950 12.1237 -6.5284 -2.0015 15.9777 16.6853 -0.0777 7.6811 6.6852 -0.0000 -0.0000 0.0000 -78.0505 16.3280 5.2472 25.4328 -36.6431 -8.5469 -0.0000 -0.0000 11.3928 6.0985 -22.1538 -2.3072 -7.1250 0.0000 -0.0000 -14.2641 8.2584 12.4706 -0.0000 -0.0000 0.0000 81.0629 -19.4946 46.8551 -19.2421 29.7184 -5.1503 0.0000 0.0000 13.1561 -21.4389 -53.6398 17.5483 7.1250 -0.0000 -0.0000 67.0990 -79.6311 -57.0800
8.1071 15.1134 41.4764 -178.9220 -16.5128 179.3210 0.0000 0.0000 0.0000 -23.8631 -28.6368 -3.4417 3.0505 10.7764 31.5294 1.4489 -8.9419 -21.5672 2.6492 -10.1043 -29.3152 0.0000 0.0000 0.0000 29.1455 10.2333 -1.3088 -2.0559 -8.9815 25.7374 -2.8994 -24.7641 -47.7696 -3.3342 -11.2173 33.0163 1.4937 3.6788 7.5281 -0.3486 5.0157 -4.6339 -1.9540 2.3057 -8.9711 4.3361 12.3433 -6.9241 -1.6058 16.2312 17.0424 0.1256 7.8127 6.8286 0.0000 0.0000 0.0000 -77.3430 16.3361 6.6595 26.1254 -37.3322 -8.9636 -0.0000 -0.0000 10.5342 5.4690 -21.8933 -2.0446 -7.1250 0.0000 -0.0000 -14.6567 8.5609 12.7472 0.0000 0.0000 0.0000 81.1000 -19.5057 46.5532 -19.2652 29.7468 -5.1617 0.0000 0.0000 13.0791 -21.0621 -53.7428 17.2516 7.1250 -0.0000 -0.0000 67.6769 -79.4976 -57.4850
8.1131 15.1116 41.4753 -178.9120 -16.5592 179.2010 0.0000 0.0000 0.0000 -23.9269 -28.7423 -3.2787 3.0593 10.7904 31.5762 1.4377 -9.0131 -21.4879 2.5510 -9.9300 -28.7503 0.0000 0.0000 0.0000 29.2056 10.1642 -1.1587 -2.0460 -8.9613 25.6742 -3.3479 -23.8907 -48.6691 -3.7259 -11.7864 34.9806 1.5068 3.6732 7.6498 -0.3640 5.0131 -4.5870 -1.9843 2.3041 -8.9890 4.6249 12.5005 -6.8033 -1.8391 16.4538 16.8544 0.0235 7.9263 6.8000 -0.0000 0.0000 0.0000 -76.6095 16.3387 7.9748 26.8415 -38.0276 -9.4013 -0.0000 -0.0000 9.6687 4.7256 -21.9511 -1.7700 -7.1250 0.0000 -0.0000 -15.1152 8.5610 13.1762 -0.0000 0.0000 0.0000 81.2891 -19.5083 46.2464 -19.2679 29.7502 -5.1631 0.0000 0.0000 12.8191 -21.4434 -53.7225 17.5697 7.1250 -0.0000 -0.0000 67.5497 -79.6491 -57.5214
8.1202 15.1110 41.4709 -178.8570 -16.6813 179.1220 0.0000 0.0000 0.0000 -23.8968 -28.8559 -3.2052 3.0728 10.8119 31.6482 1.4275 -9.0770 -21.4155 2.5150 -9.8652 -28.5412 0.0000 0.0000 0.0000 29.3322 10.1555 -1.0421 -2.0368 -8.9424 25.6152 -3.5307 -23.5997 -49.0910 -3.9282 -12.0642 35.9595 1.5777 3.6679 7.6707 -0.3691 5.0143 -4.5939 -2.0310 2.2998 -9.0023 4.5263 12.5480 -6.7409 -1.6379 16.4984 16.8410 0.0960 7.9601 6.7601 0.0000 0.0000 0.0000 -75.9425 16.4466 9.2612 27.5614 -38.7093 -9.8482 -0.0000 -0.0000 9.1532 4.4605 -21.8996 -1.6666 -7.1250 0.0000 -0.0000 -15.2798 8.6302 13.3091 0.0000 0.0000 0.0000 81.5397 -19.6169 45.8371 -19.2388 29.7143 -5.1487 0.0000 0.0000 12.8256 -21.6948 -53.8351 17.8063 7.1250 -0.0000 -0.0000 68.1637 -79.7725 -58.2256
8.1273 15.1093 41.4678 -178.7900 -16.9244 179.1430 0.0000 0.0000 0.0000 -23.7519 -28.9010 -3.3030 3.0807 10.8246 31.6906 1.4308 -9.1907 -21.4476 2.5124 -9.8603 -28.5257 0.0000 0.0000 0.0000 29.4764 10.2085 -1.0207 -2.0280 -8.9242 25.5586 -3.4941 -23.8704 -49.1736 -4.0326 -12.2036 36.4561 1.6362 3.6071 7.5936 -0.3611 4.9368 -4.6362 -2.0395 2.2576 -9.0018 4.4327 12.6264 -6.6205 -1.4413 16.5862 16.7944 0.1649 8.0160 6.7018 -0.0000 -0.0000 0.0000 -75.3236 16.6692 10.5440 28.3820 -39.4656 -10.3656 -0.0000 -0.0000 8.5510 4.3148 -21.6518 -1.5946 -7.1250 0.0000 -0.0000 -15.3752 8.8797 13.3194 -0.0000 -0.0000 0.0000 81.7476 -19.7060 45.5734 -19.2081 29.6765 -5.1335 0.0000 0.0000 12.9123 -21.7844 -54.1467 17.9486 7.1250 -0.0000 -0.0000 69.9036 -79.8595 -59.9595
8.1347 15.1067 41.4654 -178.7920 -17.2134 179.1230 0.0000 0.0000 0.0000 -23.7096 -28.9383 -3.3095 3.0852 10.8317 31.7144 1.4261 -9.5006 -21.4336 2.5498 -9.9280 -28.7437 0.0000 0.0000 0.0000 29.5799 10.2696 -0.8932 -2.0186 -8.9048 25.4980 -3.5166 -24.0462 -49.3916 -4.1146 -12.3114 36.8426 1.5978 3.5087 7.5815 -0.3370 4.8023 -4.6203 -1.9716 2.1960 -8.9879 4.4592 12.7525 -6.5005 -1.4624 16.7626 16.6528 0.1577 8.1071 6.6455 0.0000 0.0000 0.0000 -74.8866 16.8661 11.5387 29.2901 -40.2771 -10.9478 -0.0000 -0.0000 7.8763 3.7301 -21.7217 -1.3822 -7.1250 0.0000 -0.0000 -15.7344 8.8528 13.6652 0.0000 0.0000 0.0000 81.8536 -19.6935 45.6008 -19.2301 29.7036 -5.1444 0.0000 0.0000 12.8023 -21.6926 -54.3466 17.9126 7.1250 -0.0000 -0.0000 71.0172 -79.8498 -61.0074
8.1404 15.1058 41.4635 -178.8480 -17.2656 179.1330 0.0000 0.0000 0.0000 -23.7602 -29.0147 -3.2566 3.0846 10.8307 31.7111 1.4137 -9.6660 -21.3555 2.3995 -9.6529 -27.8599 0.0000 0.0000 0.0000 29.5998 10.4360 -0.7756 -2.0124 -8.8918 25.4573 -3.5181 -24.2050 -49.5221 -4.0812 -12.2677 36.6855 1.5027 3.4967 7.5773 -0.3278 4.7767 -4.5874 -1.9039 2.1912 -8.9590 4.5849 12.9134 -6.5299 -1.5455 16.9830 16.6851 0.1405 8.2131 6.6865 -0.0000 -0.0000 0.0000 -74.6082 16.9048 12.2564 30.0718 -40.9549 -11.4567 -0.0000 -0.0000 7.5340 3.3163 -22.1424 -1.2511 -7.1250 0.0000 -0.0000 -15.9776 8.4761 14.0193 -0.0000 -0.0000 0.0000 81.9629 -19.6524 45.7617 -19.2636 29.7449 -5.1610 0.0000 0.0000 12.5424 -21.7136 -54.2702 17.9145 7.1250 -0.0000 -0.0000 70.5906 -79.8483 -60.6000
8.1437 15.1077 41.4607 -178.8350 -17.1471 179.1330 0.0000 0.0000 0.0000 -23.7444 -28.9722 -3.2200 3.0793 10.8223 31.6830 1.4193 -9.5518 -21.3877 2.3252 -9.5128 -27.4131 0.0000 0.0000 0.0000 29.6681 10.6257 -0.6855 -2.0111 -8.8891 25.4491 -3.4474 -24.3992 -49.4285 -4.0868 -12.2750 36.7118 1.5373 3.5482 7.5448 -0.3373 4.8481 -4.5907 -1.9411 2.2239 -8.9372 4.6054 12.9403 -6.3316 -1.6280 17.0364 16.2909 0.0892 8.2495 6.5370 -0.0000 -0.0000 0.0000 -74.2329 16.9702 13.1635 30.7610 -41.5368 -11.9110 -0.0000 -0.0000 6.8984 3.2111 -22.2671 -1.2178 -7.1250 0.0000 -0.0000 -16.0387 8.3633 14.1149 -0.0000 -0.0000 0.0000 82.1043 -19.7417 45.9418 -19.2470 29.7244 -5.1527 0.0000 0.0000 12.7779 -21.9514 -54.1496 18.0914 7.1250 -0.0000 -0.0000 69.9345 -79.9276 -60.0593
8.1460 15.1101 41.4566 -178.8230 -17.1610 179.0830 0.0000 0.0000 0.0000 -23.7469 -28.8989 -3.1548 3.0739 10.8138 31.6543 1.4312 -9.4821 -21.4704 2.4602 -9.7651 -28.2194 0.0000 0.0000 0.0000 29.7416 10.6851 -0.5565 -2.0106 -8.8882 25.4462 -3.4713 -24.4158 -49.5256 -4.1447 -12.3505 36.9835 1.5949 3.5546 7.5224 -0.3274 4.8639 -4.5759 -1.9625 2.2295 -8.9034 4.5078 13.0138 -6.2614 -1.4828 17.1277 16.1693 0.1433 8.3052 6.4671 0.0000 -0.0000 0.0000 -73.9235 17.1075 14.1166 31.5235 -42.1640 -12.4198 -0.0000 -0.0000 5.9679 3.0715 -21.9137 -1.1472 -7.1250 0.0000 -0.0000 -16.1341 8.7122 14.0898 0.0000 -0.0000 0.0000 82.1181 -19.8591 46.3830 -19.2237 29.6957 -5.1412 0.0000 0.0000 13.3771 -21.9501 -54.0213 18.0628 7.1250 -0.0000 -0.0000 69.2105 -79.9077 -59.3529
8.1482 15.1091 41.4548 -178.8830 -17.2064 179.0740 0.0000 0.0000 0.0000 -23.8217 -28.9077 -3.1082 3.0720 10.8108 31.6443 1.4338 -9.3995 -21.4836 2.6072 -10.0303 -29.0751 0.0000 0.0000 0.0000 29.7122 10.7207 -0.4818 -2.0081 -8.8830 25.4301 -3.5294 -24.3674 -49.6898 -4.1738 -12.3882 37.1193 1.5174 3.4962 7.5184 -0.3296 4.7771 -4.5437 -1.9077 2.1932 -8.8753 4.7249 13.1498 -6.4185 -1.5431 17.2977 16.2828 0.1291 8.3910 6.5607 -0.0000 -0.0000 0.0000 -73.7335 17.2967 14.7847 32.3456 -42.8210 -12.9752 -0.0000 -0.0000 5.2435 3.0345 -21.4007 -1.1082 -7.1250 0.0000 -0.0000 -16.1727 9.2073 13.9598 -0.0000 -0.0000 0.0000 82.1412 -19.8624 47.1548 -19.2314 29.7052 -5.1450 0.0000 0.0000 13.5778 -22.0939 -53.8542 18.1491 7.1250 -0.0000 -0.0000 68.2759 -79.9387 -58.5021
